<?xml version="1.0" encoding="utf-8"?>
<!-- Generator: Adobe Illustrator 15.0.0, SVG Export Plug-In  -->
<!DOCTYPE svg PUBLIC "-//W3C//DTD SVG 1.1//EN" "http://www.w3.org/Graphics/SVG/1.1/DTD/svg11.dtd" [
	<!ENTITY ns_flows "http://ns.adobe.com/Flows/1.0/">
]>
<svg version="1.1"
	 xmlns="http://www.w3.org/2000/svg" xmlns:xlink="http://www.w3.org/1999/xlink" xmlns:a="http://ns.adobe.com/AdobeSVGViewerExtensions/3.0/"
	 x="0px" y="0px" width="279px" height="53px" viewBox="-0.502 -0.875 279 53"
	 overflow="visible" enable-background="new -0.502 -0.875 279 53" xml:space="preserve">
<defs>
</defs>
<path fill="#9FA0A0" d="M20.734,51.494C9.302,51.494,0,42.193,0,30.759c0-11.433,9.302-20.734,20.734-20.734
	s20.734,9.301,20.734,20.734C41.469,42.193,32.167,51.494,20.734,51.494z"/>
<path fill="#044F6E" d="M41.564,30.759c0-7.494,4.434-13.957,10.808-16.95c-3.373-2.375-7.474-3.784-11.903-3.784
	c-11.433,0-20.734,9.301-20.734,20.734c0,11.434,9.302,20.734,20.734,20.734c4.43,0,8.53-1.408,11.903-3.784
	C45.998,44.716,41.564,38.254,41.564,30.759z"/>
<path fill="#227FAB" d="M60.203,51.494c-11.433,0-20.734-9.301-20.734-20.734c0-11.433,9.302-20.734,20.734-20.734
	s20.734,9.301,20.734,20.734C80.938,42.193,71.636,51.494,60.203,51.494z M66.781,16.137v2h4.629L59.496,30.052l1.414,1.414
	l11.914-11.915v4.632h2v-8.047H66.781z"/>
<path d="M103.844,10.668c-6.461,0-11.906,3.123-15.527,7.922V0h-4.281v30.476c0,10.922,8.887,19.809,19.809,19.809
	s19.809-8.887,19.809-19.809C123.652,19.555,114.766,10.668,103.844,10.668z M103.844,46.285c-8.719,0-15.527-7.092-15.527-15.809
	c0-8.716,6.809-15.808,15.527-15.808c8.715,0,15.523,7.092,15.523,15.808C119.367,39.193,112.559,46.285,103.844,46.285z"/>
<path d="M145.578,10.668c-10.922,0-19.809,8.887-19.809,19.808c0,10.922,8.887,19.809,19.809,19.809s19.809-8.887,19.809-19.809
	C165.387,19.555,156.5,10.668,145.578,10.668z M145.578,46.285c-8.719,0-15.527-7.092-15.527-15.809
	c0-8.716,6.809-15.808,15.527-15.808c8.715,0,15.523,7.092,15.523,15.808C161.102,39.193,154.293,46.285,145.578,46.285z"/>
<path d="M239.586,10.668h-9.379c-10.922,0-19.809,8.887-19.809,19.808v18.375h4.281V30.476c0-8.716,6.809-15.808,15.527-15.808
	h9.379V10.668z"/>
<path d="M274.109,0v18.59c-3.617-4.799-9.066-7.922-15.527-7.922c-10.922,0-19.809,8.887-19.809,19.808
	c0,10.922,8.887,19.809,19.809,19.809c8.77,0,16.222-5.725,18.822-13.631c0.64-1.945,0.986-4.178,0.986-8.598V0H274.109z
	 M258.582,46.285c-8.715,0-15.523-7.092-15.523-15.809c0-8.716,6.809-15.808,15.523-15.808c8.719,0,15.527,7.092,15.527,15.808
	C274.109,39.193,267.301,46.285,258.582,46.285z"/>
<path d="M84.035,0v28.056c0,4.42,0.347,6.652,0.986,8.598c2.601,7.906,10.053,13.631,18.822,13.631
	c10.922,0,19.809-8.887,19.809-19.809c0-10.921-8.887-19.808-19.809-19.808c-6.461,0-11.91,3.123-15.527,7.922V0H84.035z
	 M88.316,30.476c0-8.716,6.809-15.808,15.527-15.808c8.715,0,15.523,7.092,15.523,15.808c0,8.717-6.809,15.809-15.523,15.809
	C95.125,46.285,88.316,39.193,88.316,30.476z"/>
<path d="M202.836,18.59c-3.617-4.799-9.348-7.922-15.809-7.922c-10.922,0-19.809,8.887-19.809,19.808
	c0,10.922,8.887,19.809,19.809,19.809c6.461,0,12.191-3.123,15.809-7.922v6.488h4.285v-36.75h-4.285V18.59z M187.027,46.285
	c-8.715,0-15.523-7.092-15.523-15.809c0-8.716,6.809-15.808,15.523-15.808c8.719,0,15.809,7.092,15.809,15.808
	C202.836,39.193,195.746,46.285,187.027,46.285z"/>
</svg>
